<mxfile host="app.diagrams.net" modified="2024-02-27T15:18:39.087Z" agent="Mozilla/5.0 (Windows NT 10.0; Win64; x64) AppleWebKit/537.36 (KHTML, like Gecko) Chrome/122.0.0.0 Safari/537.36" etag="3SpCmjDZOnspePrRPfgt" version="23.1.7" type="device">
  <diagram name="PÃ¡gina-1" id="_dFwKzri3uKhQjV6SM4W">
    <mxGraphModel dx="788" dy="418" grid="1" gridSize="10" guides="1" tooltips="1" connect="1" arrows="1" fold="1" page="1" pageScale="1" pageWidth="827" pageHeight="1169" math="0" shadow="0">
      <root>
        <mxCell id="0" />
        <mxCell id="1" parent="0" />
        <mxCell id="WXwacFjEaFp_2pY9F6QX-5" value="Main" style="swimlane;fontStyle=1;align=center;verticalAlign=top;childLayout=stackLayout;horizontal=1;startSize=26;horizontalStack=0;resizeParent=1;resizeParentMax=0;resizeLast=0;collapsible=1;marginBottom=0;whiteSpace=wrap;html=1;" vertex="1" parent="1">
          <mxGeometry x="94.5" y="60" width="170" height="60" as="geometry" />
        </mxCell>
        <mxCell id="WXwacFjEaFp_2pY9F6QX-7" value="" style="line;strokeWidth=1;fillColor=none;align=left;verticalAlign=middle;spacingTop=-1;spacingLeft=3;spacingRight=3;rotatable=0;labelPosition=right;points=[];portConstraint=eastwest;strokeColor=inherit;" vertex="1" parent="WXwacFjEaFp_2pY9F6QX-5">
          <mxGeometry y="26" width="170" height="8" as="geometry" />
        </mxCell>
        <mxCell id="WXwacFjEaFp_2pY9F6QX-8" value="+ main(args: String[]): void&amp;nbsp;" style="text;strokeColor=none;fillColor=none;align=left;verticalAlign=top;spacingLeft=4;spacingRight=4;overflow=hidden;rotatable=0;points=[[0,0.5],[1,0.5]];portConstraint=eastwest;whiteSpace=wrap;html=1;" vertex="1" parent="WXwacFjEaFp_2pY9F6QX-5">
          <mxGeometry y="34" width="170" height="26" as="geometry" />
        </mxCell>
        <mxCell id="WXwacFjEaFp_2pY9F6QX-9" value="Auto" style="swimlane;fontStyle=1;align=center;verticalAlign=top;childLayout=stackLayout;horizontal=1;startSize=26;horizontalStack=0;resizeParent=1;resizeParentMax=0;resizeLast=0;collapsible=1;marginBottom=0;whiteSpace=wrap;html=1;" vertex="1" parent="1">
          <mxGeometry x="555" y="42" width="130" height="150" as="geometry" />
        </mxCell>
        <mxCell id="WXwacFjEaFp_2pY9F6QX-10" value="- nombre: String&lt;br&gt;- color: String&lt;br&gt;- posicion: int&lt;br&gt;- avance: int" style="text;strokeColor=none;fillColor=none;align=left;verticalAlign=top;spacingLeft=4;spacingRight=4;overflow=hidden;rotatable=0;points=[[0,0.5],[1,0.5]];portConstraint=eastwest;whiteSpace=wrap;html=1;" vertex="1" parent="WXwacFjEaFp_2pY9F6QX-9">
          <mxGeometry y="26" width="130" height="74" as="geometry" />
        </mxCell>
        <mxCell id="WXwacFjEaFp_2pY9F6QX-11" value="" style="line;strokeWidth=1;fillColor=none;align=left;verticalAlign=middle;spacingTop=-1;spacingLeft=3;spacingRight=3;rotatable=0;labelPosition=right;points=[];portConstraint=eastwest;strokeColor=inherit;" vertex="1" parent="WXwacFjEaFp_2pY9F6QX-9">
          <mxGeometry y="100" width="130" height="8" as="geometry" />
        </mxCell>
        <mxCell id="WXwacFjEaFp_2pY9F6QX-12" value="+ Auto(nombre: String, color: String)" style="text;strokeColor=none;fillColor=none;align=left;verticalAlign=top;spacingLeft=4;spacingRight=4;overflow=hidden;rotatable=0;points=[[0,0.5],[1,0.5]];portConstraint=eastwest;whiteSpace=wrap;html=1;" vertex="1" parent="WXwacFjEaFp_2pY9F6QX-9">
          <mxGeometry y="108" width="130" height="42" as="geometry" />
        </mxCell>
        <mxCell id="WXwacFjEaFp_2pY9F6QX-13" value="ValidacionTipo" style="swimlane;fontStyle=1;align=center;verticalAlign=top;childLayout=stackLayout;horizontal=1;startSize=26;horizontalStack=0;resizeParent=1;resizeParentMax=0;resizeLast=0;collapsible=1;marginBottom=0;whiteSpace=wrap;html=1;" vertex="1" parent="1">
          <mxGeometry x="470" y="268" width="300" height="104" as="geometry" />
        </mxCell>
        <mxCell id="WXwacFjEaFp_2pY9F6QX-15" value="" style="line;strokeWidth=1;fillColor=none;align=left;verticalAlign=middle;spacingTop=-1;spacingLeft=3;spacingRight=3;rotatable=0;labelPosition=right;points=[];portConstraint=eastwest;strokeColor=inherit;" vertex="1" parent="WXwacFjEaFp_2pY9F6QX-13">
          <mxGeometry y="26" width="300" height="8" as="geometry" />
        </mxCell>
        <mxCell id="WXwacFjEaFp_2pY9F6QX-16" value="+ validarTexto(nombre: String): boolean&lt;br&gt;+ validarNumero(numero: String): boolean&lt;div&gt;+ entradaTexto(scanner: Scanner, i: int): String&lt;br&gt;&lt;/div&gt;&lt;div&gt;+ entradaNumero(scanner: Scanner): String&lt;br&gt;&lt;/div&gt;" style="text;strokeColor=none;fillColor=none;align=left;verticalAlign=top;spacingLeft=4;spacingRight=4;overflow=hidden;rotatable=0;points=[[0,0.5],[1,0.5]];portConstraint=eastwest;whiteSpace=wrap;html=1;" vertex="1" parent="WXwacFjEaFp_2pY9F6QX-13">
          <mxGeometry y="34" width="300" height="70" as="geometry" />
        </mxCell>
        <mxCell id="WXwacFjEaFp_2pY9F6QX-17" value="CarreraAutos" style="swimlane;fontStyle=1;align=center;verticalAlign=top;childLayout=stackLayout;horizontal=1;startSize=26;horizontalStack=0;resizeParent=1;resizeParentMax=0;resizeLast=0;collapsible=1;marginBottom=0;whiteSpace=wrap;html=1;" vertex="1" parent="1">
          <mxGeometry x="10" y="223" width="331" height="230" as="geometry" />
        </mxCell>
        <mxCell id="WXwacFjEaFp_2pY9F6QX-18" value="&lt;div&gt;- numeroAutos: int&lt;/div&gt;&lt;div&gt;&lt;span style=&quot;background-color: initial;&quot;&gt;- longitudPista: String&lt;/span&gt;&lt;/div&gt;&lt;div&gt;- nombreAuto: String&lt;/div&gt;" style="text;strokeColor=none;fillColor=none;align=left;verticalAlign=top;spacingLeft=4;spacingRight=4;overflow=hidden;rotatable=0;points=[[0,0.5],[1,0.5]];portConstraint=eastwest;whiteSpace=wrap;html=1;" vertex="1" parent="WXwacFjEaFp_2pY9F6QX-17">
          <mxGeometry y="26" width="331" height="54" as="geometry" />
        </mxCell>
        <mxCell id="WXwacFjEaFp_2pY9F6QX-19" value="" style="line;strokeWidth=1;fillColor=none;align=left;verticalAlign=middle;spacingTop=-1;spacingLeft=3;spacingRight=3;rotatable=0;labelPosition=right;points=[];portConstraint=eastwest;strokeColor=inherit;" vertex="1" parent="WXwacFjEaFp_2pY9F6QX-17">
          <mxGeometry y="80" width="331" height="8" as="geometry" />
        </mxCell>
        <mxCell id="WXwacFjEaFp_2pY9F6QX-20" value="+ crearAutos(): List&amp;lt;Auto&amp;gt;&lt;br&gt;+ prepararPista(): String[]&lt;div&gt;+ colocarArbolesEnPista(pista: String[]): void&lt;br&gt;&lt;/div&gt;&lt;div&gt;+ carrera(autos: List&amp;lt;Auto&amp;gt;, pista: String[]): void&lt;br&gt;&lt;/div&gt;&lt;div&gt;+ avanzarAuto(auto: Auto, pista: String[]): void&lt;br&gt;&lt;/div&gt;&lt;div&gt;+ imprimirPista(autos: List&amp;lt;Auto&amp;gt;, pista: String[]): void&lt;br&gt;&lt;/div&gt;&lt;div&gt;+ pausaCarrera(): void&lt;br&gt;&lt;/div&gt;&lt;div&gt;+ limpiarPantalla(): void&lt;br&gt;&lt;/div&gt;&lt;div&gt;+ mostrarGanador(autos: List&amp;lt;Autos&amp;gt;): void&lt;/div&gt;" style="text;strokeColor=none;fillColor=none;align=left;verticalAlign=top;spacingLeft=4;spacingRight=4;overflow=hidden;rotatable=0;points=[[0,0.5],[1,0.5]];portConstraint=eastwest;whiteSpace=wrap;html=1;" vertex="1" parent="WXwacFjEaFp_2pY9F6QX-17">
          <mxGeometry y="88" width="331" height="142" as="geometry" />
        </mxCell>
        <mxCell id="WXwacFjEaFp_2pY9F6QX-28" value="" style="endArrow=diamondThin;html=1;rounded=0;entryX=-0.015;entryY=0.635;entryDx=0;entryDy=0;entryPerimeter=0;exitX=0.997;exitY=1.06;exitDx=0;exitDy=0;exitPerimeter=0;endFill=1;strokeWidth=1;endSize=13;" edge="1" parent="1" source="WXwacFjEaFp_2pY9F6QX-18" target="WXwacFjEaFp_2pY9F6QX-10">
          <mxGeometry width="50" height="50" relative="1" as="geometry">
            <mxPoint x="460" y="190" as="sourcePoint" />
            <mxPoint x="510" y="140" as="targetPoint" />
            <Array as="points">
              <mxPoint x="400" y="307" />
              <mxPoint x="400" y="115" />
            </Array>
          </mxGeometry>
        </mxCell>
        <mxCell id="WXwacFjEaFp_2pY9F6QX-30" value="" style="endArrow=open;html=1;rounded=0;exitX=0.479;exitY=1.077;exitDx=0;exitDy=0;dashed=1;dashPattern=8 8;endFill=0;exitPerimeter=0;entryX=0.5;entryY=0;entryDx=0;entryDy=0;endSize=9;" edge="1" parent="1" source="WXwacFjEaFp_2pY9F6QX-8" target="WXwacFjEaFp_2pY9F6QX-17">
          <mxGeometry width="50" height="50" relative="1" as="geometry">
            <mxPoint x="310" y="170" as="sourcePoint" />
            <mxPoint x="210" y="150" as="targetPoint" />
            <Array as="points">
              <mxPoint x="176" y="150" />
            </Array>
          </mxGeometry>
        </mxCell>
        <mxCell id="WXwacFjEaFp_2pY9F6QX-32" value="" style="endArrow=open;html=1;rounded=0;exitX=1.003;exitY=0.148;exitDx=0;exitDy=0;dashed=1;dashPattern=8 8;endFill=0;exitPerimeter=0;entryX=0.003;entryY=0.414;entryDx=0;entryDy=0;endSize=9;entryPerimeter=0;" edge="1" parent="1" source="WXwacFjEaFp_2pY9F6QX-20" target="WXwacFjEaFp_2pY9F6QX-16">
          <mxGeometry width="50" height="50" relative="1" as="geometry">
            <mxPoint x="186" y="132" as="sourcePoint" />
            <mxPoint x="186" y="202" as="targetPoint" />
            <Array as="points" />
          </mxGeometry>
        </mxCell>
        <mxCell id="WXwacFjEaFp_2pY9F6QX-33" value="1" style="text;html=1;align=center;verticalAlign=middle;resizable=0;points=[];autosize=1;strokeColor=none;fillColor=none;" vertex="1" parent="1">
          <mxGeometry x="345" y="278" width="30" height="30" as="geometry" />
        </mxCell>
        <mxCell id="WXwacFjEaFp_2pY9F6QX-34" value="1...*" style="text;html=1;align=center;verticalAlign=middle;resizable=0;points=[];autosize=1;strokeColor=none;fillColor=none;" vertex="1" parent="1">
          <mxGeometry x="500" y="78" width="40" height="30" as="geometry" />
        </mxCell>
        <mxCell id="WXwacFjEaFp_2pY9F6QX-37" value="1" style="text;html=1;align=center;verticalAlign=middle;resizable=0;points=[];autosize=1;strokeColor=none;fillColor=none;" vertex="1" parent="1">
          <mxGeometry x="185" y="128" width="30" height="30" as="geometry" />
        </mxCell>
        <mxCell id="WXwacFjEaFp_2pY9F6QX-38" value="1" style="text;html=1;align=center;verticalAlign=middle;resizable=0;points=[];autosize=1;strokeColor=none;fillColor=none;" vertex="1" parent="1">
          <mxGeometry x="185" y="195" width="30" height="30" as="geometry" />
        </mxCell>
        <mxCell id="WXwacFjEaFp_2pY9F6QX-39" value="1" style="text;html=1;align=center;verticalAlign=middle;resizable=0;points=[];autosize=1;strokeColor=none;fillColor=none;" vertex="1" parent="1">
          <mxGeometry x="345" y="334" width="30" height="30" as="geometry" />
        </mxCell>
        <mxCell id="WXwacFjEaFp_2pY9F6QX-40" value="1...*" style="text;html=1;align=center;verticalAlign=middle;resizable=0;points=[];autosize=1;strokeColor=none;fillColor=none;" vertex="1" parent="1">
          <mxGeometry x="426" y="335" width="40" height="30" as="geometry" />
        </mxCell>
      </root>
    </mxGraphModel>
  </diagram>
</mxfile>
